<?xml version="1.0" encoding="UTF-8"?>
<!--Generator: Apple Native CoreSVG 341-->
<!DOCTYPE svg
PUBLIC "-//W3C//DTD SVG 1.1//EN"
       "http://www.w3.org/Graphics/SVG/1.1/DTD/svg11.dtd">
<svg version="1.1" xmlns="http://www.w3.org/2000/svg" xmlns:xlink="http://www.w3.org/1999/xlink" viewBox="0 0 3300 2200">
 <!--glyph: "", point size: 100.0, font version: "21.0d6e2", template writer version: "138.0.0"-->
 <style>.defaults {-sfsymbols-variable-value-mode:color;-sfsymbols-draw-reverses-motion-groups:true}

.monochrome-0 {-sfsymbols-motion-group:1;-sfsymbols-layer-tags:31910b3733f15bb}
.monochrome-1 {-sfsymbols-motion-group:0;-sfsymbols-layer-tags:31910b3733f15bb}

.multicolor-0:tintColor {-sfsymbols-motion-group:1;-sfsymbols-layer-tags:31910b3733f15bb}
.multicolor-1:tintColor {-sfsymbols-motion-group:0;-sfsymbols-layer-tags:31910b3733f15bb}

.hierarchical-0:secondary {-sfsymbols-motion-group:1;-sfsymbols-layer-tags:31910b3733f15bb}
.hierarchical-1:primary {-sfsymbols-motion-group:0;-sfsymbols-layer-tags:31910b3733f15bb}

.SFSymbolsPreviewWireframe {fill:none;opacity:1.0;stroke:black;stroke-width:0.5}
</style>
 <g id="Notes">
  <rect height="2200" id="artboard" style="fill:white;opacity:1" width="3300" x="0" y="0"/>
  <line style="fill:none;stroke:black;opacity:1;stroke-width:0.5;" x1="263" x2="3036" y1="292" y2="292"/>
  <text style="stroke:none;fill:black;font-family:sans-serif;font-size:13;font-weight:bold;" transform="matrix(1 0 0 1 263 322)">Weight/Scale Variations</text>
  <text style="stroke:none;fill:black;font-family:sans-serif;font-size:13;text-anchor:middle;" transform="matrix(1 0 0 1 559.711 322)">Ultralight</text>
  <text style="stroke:none;fill:black;font-family:sans-serif;font-size:13;text-anchor:middle;" transform="matrix(1 0 0 1 856.422 322)">Thin</text>
  <text style="stroke:none;fill:black;font-family:sans-serif;font-size:13;text-anchor:middle;" transform="matrix(1 0 0 1 1153.13 322)">Light</text>
  <text style="stroke:none;fill:black;font-family:sans-serif;font-size:13;text-anchor:middle;" transform="matrix(1 0 0 1 1449.84 322)">Regular</text>
  <text style="stroke:none;fill:black;font-family:sans-serif;font-size:13;text-anchor:middle;" transform="matrix(1 0 0 1 1746.56 322)">Medium</text>
  <text style="stroke:none;fill:black;font-family:sans-serif;font-size:13;text-anchor:middle;" transform="matrix(1 0 0 1 2043.27 322)">Semibold</text>
  <text style="stroke:none;fill:black;font-family:sans-serif;font-size:13;text-anchor:middle;" transform="matrix(1 0 0 1 2339.98 322)">Bold</text>
  <text style="stroke:none;fill:black;font-family:sans-serif;font-size:13;text-anchor:middle;" transform="matrix(1 0 0 1 2636.69 322)">Heavy</text>
  <text style="stroke:none;fill:black;font-family:sans-serif;font-size:13;text-anchor:middle;" transform="matrix(1 0 0 1 2933.4 322)">Black</text>
  <line style="fill:none;stroke:black;opacity:1;stroke-width:0.5;" x1="263" x2="3036" y1="1903" y2="1903"/>
  <g transform="matrix(0.2 0 0 0.2 263 1933)">
   <path d="m46.2402 4.15039c21.7773 0 39.4531-17.627 39.4531-39.4043s-17.6758-39.4043-39.4531-39.4043c-21.7285 0-39.4043 17.627-39.4043 39.4043s17.6758 39.4043 39.4043 39.4043Zm0-7.42188c-17.6758 0-31.9336-14.3066-31.9336-31.9824s14.2578-31.9824 31.9336-31.9824 31.9824 14.3066 31.9824 31.9824-14.3066 31.9824-31.9824 31.9824Zm3.61328-17.7734v-28.4668c0-2.24609-1.46484-3.75977-3.71094-3.75977-2.14844 0-3.61328 1.51367-3.61328 3.75977v28.4668c0 2.19727 1.46484 3.71094 3.61328 3.71094 2.24609 0 3.71094-1.51367 3.71094-3.71094Zm-17.8223-10.5957h28.418c2.19727 0 3.71094-1.46484 3.71094-3.61328 0-2.19727-1.51367-3.71094-3.71094-3.71094h-28.418c-2.24609 0-3.75977 1.51367-3.75977 3.71094 0 2.14844 1.51367 3.61328 3.75977 3.61328Z"/>
  </g>
  <g transform="matrix(0.2 0 0 0.2 281.506 1933)">
   <path d="m58.5449 14.5508c27.4902 0 49.8047-22.3145 49.8047-49.8047s-22.3145-49.8047-49.8047-49.8047-49.8047 22.3145-49.8047 49.8047 22.3145 49.8047 49.8047 49.8047Zm0-8.30078c-22.9492 0-41.5039-18.5547-41.5039-41.5039s18.5547-41.5039 41.5039-41.5039 41.5039 18.5547 41.5039 41.5039-18.5547 41.5039-41.5039 41.5039Zm4.05273-23.0957v-36.9141c0-2.49023-1.70898-4.19922-4.15039-4.19922-2.39258 0-4.05273 1.70898-4.05273 4.19922v36.9141c0 2.44141 1.66016 4.15039 4.05273 4.15039 2.44141 0 4.15039-1.66016 4.15039-4.15039Zm-22.5586-14.4043h36.9629c2.44141 0 4.15039-1.61133 4.15039-4.00391 0-2.44141-1.70898-4.15039-4.15039-4.15039h-36.9629c-2.49023 0-4.15039 1.70898-4.15039 4.15039 0 2.39258 1.66016 4.00391 4.15039 4.00391Z"/>
  </g>
  <g transform="matrix(0.2 0 0 0.2 304.924 1933)">
   <path d="m74.8535 28.3203c35.1074 0 63.623-28.4668 63.623-63.5742s-28.5156-63.623-63.623-63.623-63.5742 28.5156-63.5742 63.623 28.4668 63.5742 63.5742 63.5742Zm0-9.08203c-30.127 0-54.4922-24.3652-54.4922-54.4922s24.3652-54.4922 54.4922-54.4922 54.4922 24.3652 54.4922 54.4922-24.3652 54.4922-54.4922 54.4922Zm4.44336-30.3223v-48.4863c0-2.73438-1.85547-4.63867-4.54102-4.63867-2.58789 0-4.44336 1.9043-4.44336 4.63867v48.4863c0 2.68555 1.85547 4.58984 4.44336 4.58984 2.68555 0 4.54102-1.85547 4.54102-4.58984Zm-28.7109-19.7754h48.4863c2.68555 0 4.58984-1.80664 4.58984-4.39453 0-2.73438-1.85547-4.58984-4.58984-4.58984h-48.4863c-2.73438 0-4.58984 1.85547-4.58984 4.58984 0 2.58789 1.85547 4.39453 4.58984 4.39453Z"/>
  </g>
  <text style="stroke:none;fill:black;font-family:sans-serif;font-size:13;font-weight:bold;" transform="matrix(1 0 0 1 263 1953)">Design Variations</text>
  <text style="stroke:none;fill:black;font-family:sans-serif;font-size:13;" transform="matrix(1 0 0 1 263 1971)">Symbols are supported in up to nine weights and three scales.</text>
  <text style="stroke:none;fill:black;font-family:sans-serif;font-size:13;" transform="matrix(1 0 0 1 263 1989)">For optimal layout with text and other symbols, vertically align</text>
  <text style="stroke:none;fill:black;font-family:sans-serif;font-size:13;" transform="matrix(1 0 0 1 263 2007)">symbols with the adjacent text.</text>
  <line style="fill:none;stroke:#00AEEF;stroke-width:0.5;opacity:1.0;" x1="776" x2="776" y1="1919" y2="1933"/>
  <g transform="matrix(0.2 0 0 0.2 776 1933)">
   <path d="m16.5527 0.78125c2.58789 0 3.85742-0.976562 4.78516-3.71094l20.5566-57.5195h0.244141l20.6055 57.5195c0.927734 2.73438 2.19727 3.71094 4.73633 3.71094 2.58789 0 4.24805-1.5625 4.24805-4.00391 0-0.830078-0.146484-1.61133-0.537109-2.63672l-22.9004-60.9863c-1.12305-2.97852-3.125-4.49219-6.25-4.49219-3.02734 0-5.07812 1.46484-6.15234 4.44336l-22.9004 61.084c-0.390625 1.02539-0.537109 1.80664-0.537109 2.63672 0 2.44141 1.5625 3.95508 4.10156 3.95508Zm10.2051-20.9473h30.6641c2.00195 0 3.66211-1.66016 3.66211-3.66211 0-2.05078-1.66016-3.66211-3.66211-3.66211h-30.6641c-2.00195 0-3.66211 1.61133-3.66211 3.66211 0 2.00195 1.66016 3.66211 3.66211 3.66211Z"/>
  </g>
  <line style="fill:none;stroke:#00AEEF;stroke-width:0.5;opacity:1.0;" x1="792.836" x2="792.836" y1="1919" y2="1933"/>
  <text style="stroke:none;fill:black;font-family:sans-serif;font-size:13;font-weight:bold;" transform="matrix(1 0 0 1 776 1953)">Margins</text>
  <text style="stroke:none;fill:black;font-family:sans-serif;font-size:13;" transform="matrix(1 0 0 1 776 1971)">Leading and trailing margins on the left and right side of each symbol</text>
  <text style="stroke:none;fill:black;font-family:sans-serif;font-size:13;" transform="matrix(1 0 0 1 776 1989)">can be adjusted by modifying the x-location of the margin guidelines.</text>
  <text style="stroke:none;fill:black;font-family:sans-serif;font-size:13;" transform="matrix(1 0 0 1 776 2007)">Modifications are automatically applied proportionally to all</text>
  <text style="stroke:none;fill:black;font-family:sans-serif;font-size:13;" transform="matrix(1 0 0 1 776 2025)">scales and weights.</text>
  <g transform="matrix(0.2 0 0 0.2 1289 1933)">
   <path d="m14.209 13.1348 7.86133 7.86133c4.29688 4.39453 9.32617 4.10156 13.8672-1.02539l60.6934-68.2129-4.88281-4.88281-60.2539 67.6758c-1.80664 1.95312-3.4668 2.44141-5.81055 0.0976562l-5.17578-5.12695c-2.29492-2.29492-1.80664-3.95508 0.195312-5.81055l67.4805-62.1582-4.88281-4.83398-68.0664 62.5977c-4.98047 4.58984-5.32227 9.47266-1.02539 13.8184Zm44.873-97.4609c-2.05078 2.00195-2.24609 4.88281-1.07422 6.78711 1.12305 1.80664 3.4668 3.02734 6.5918 2.24609 5.85938-1.66016 12.5977-2.39258 18.8965 0.927734l-2.68555 7.12891c-1.61133 4.00391-0.732422 6.88477 1.70898 9.42383l10.2539 10.3027c2.34375 2.39258 4.54102 2.44141 7.08008 1.95312l4.44336-0.732422 2.58789 2.53906-0.195312 2.24609c-0.0976562 2.29492 0.537109 4.29688 2.7832 6.49414l3.36914 3.32031c2.29492 2.29492 5.51758 2.49023 7.8125 0.195312l12.9883-13.0371c2.29492-2.34375 2.14844-5.37109-0.195312-7.66602l-3.41797-3.41797c-2.19727-2.19727-4.05273-3.02734-6.34766-2.88086l-2.34375 0.244141-2.44141-2.44141 1.02539-4.6875c0.634766-2.73438-0.244141-4.98047-2.88086-7.61719l-11.2793-11.1816c-12.9395-12.8418-35.5957-11.0352-46.6797-0.146484Zm7.08008 2.05078c8.78906-6.39648 25.9766-5.66406 33.6914 1.95312l12.3047 12.207c1.02539 1.02539 1.2207 1.80664 0.927734 3.32031l-1.46484 6.64062 6.73828 6.68945 4.39453-0.244141c1.12305-0.0488281 1.51367 0.0488281 2.34375 0.878906l2.53906 2.49023-10.8398 10.8398-2.49023-2.49023c-0.830078-0.878906-0.976562-1.2207-0.927734-2.39258l0.292969-4.3457-6.68945-6.73828-6.83594 1.17188c-1.41602 0.292969-2.05078 0.195312-3.17383-0.878906l-8.93555-8.88672c-1.07422-1.02539-1.17188-1.70898-0.488281-3.36914l4.58984-11.4746c-6.10352-6.34766-17.041-7.51953-25.5859-4.58984-0.683594 0.244141-0.927734-0.390625-0.390625-0.78125Z"/>
  </g>
  <text style="stroke:none;fill:black;font-family:sans-serif;font-size:13;font-weight:bold;" transform="matrix(1 0 0 1 1289 1953)">Exporting</text>
  <text style="stroke:none;fill:black;font-family:sans-serif;font-size:13;" transform="matrix(1 0 0 1 1289 1971)">Symbols should be outlined when exporting to ensure the</text>
  <text style="stroke:none;fill:black;font-family:sans-serif;font-size:13;" transform="matrix(1 0 0 1 1289 1989)">design is preserved when submitting to Xcode.</text>
  <text id="template-version" style="stroke:none;fill:black;font-family:sans-serif;font-size:13;text-anchor:end;" transform="matrix(1 0 0 1 3036 1933)">Template v.7.0</text>
  <text style="stroke:none;fill:black;font-family:sans-serif;font-size:13;text-anchor:end;" transform="matrix(1 0 0 1 3036 1951)">Requires Xcode 17 or greater</text>
  <text id="descriptive-name" style="stroke:none;fill:black;font-family:sans-serif;font-size:13;text-anchor:end;" transform="matrix(1 0 0 1 3036 1969)">Generated from steak.ribeye</text>
  <text style="stroke:none;fill:black;font-family:sans-serif;font-size:13;text-anchor:end;" transform="matrix(1 0 0 1 3036 1987)">Typeset at 100.0 points</text>
  <text style="stroke:none;fill:black;font-family:sans-serif;font-size:13;" transform="matrix(1 0 0 1 263 726)">Small</text>
  <text style="stroke:none;fill:black;font-family:sans-serif;font-size:13;" transform="matrix(1 0 0 1 263 1156)">Medium</text>
  <text style="stroke:none;fill:black;font-family:sans-serif;font-size:13;" transform="matrix(1 0 0 1 263 1586)">Large</text>
 </g>
 <g id="Guides">
  <g id="H-reference" style="fill:#27AAE1;stroke:none;" transform="matrix(1 0 0 1 339 696)">
   <path d="M0.993654 0L3.63775 0L29.3281-67.1323L30.0303-67.1323L30.0303-70.459L28.1226-70.459ZM11.6885-24.4799L46.9815-24.4799L46.2315-26.7285L12.4385-26.7285ZM55.1196 0L57.7637 0L30.6382-70.459L29.4326-70.459L29.4326-67.1323Z"/>
  </g>
  <line id="Baseline-S" style="fill:none;stroke:#27AAE1;opacity:1;stroke-width:0.5;" x1="263" x2="3036" y1="696" y2="696"/>
  <line id="Capline-S" style="fill:none;stroke:#27AAE1;opacity:1;stroke-width:0.5;" x1="263" x2="3036" y1="625.541" y2="625.541"/>
  <g id="H-reference" style="fill:#27AAE1;stroke:none;" transform="matrix(1 0 0 1 339 1126)">
   <path d="M0.993654 0L3.63775 0L29.3281-67.1323L30.0303-67.1323L30.0303-70.459L28.1226-70.459ZM11.6885-24.4799L46.9815-24.4799L46.2315-26.7285L12.4385-26.7285ZM55.1196 0L57.7637 0L30.6382-70.459L29.4326-70.459L29.4326-67.1323Z"/>
  </g>
  <line id="Baseline-M" style="fill:none;stroke:#27AAE1;opacity:1;stroke-width:0.5;" x1="263" x2="3036" y1="1126" y2="1126"/>
  <line id="Capline-M" style="fill:none;stroke:#27AAE1;opacity:1;stroke-width:0.5;" x1="263" x2="3036" y1="1055.54" y2="1055.54"/>
  <g id="H-reference" style="fill:#27AAE1;stroke:none;" transform="matrix(1 0 0 1 339 1556)">
   <path d="M0.993654 0L3.63775 0L29.3281-67.1323L30.0303-67.1323L30.0303-70.459L28.1226-70.459ZM11.6885-24.4799L46.9815-24.4799L46.2315-26.7285L12.4385-26.7285ZM55.1196 0L57.7637 0L30.6382-70.459L29.4326-70.459L29.4326-67.1323Z"/>
  </g>
  <line id="Baseline-L" style="fill:none;stroke:#27AAE1;opacity:1;stroke-width:0.5;" x1="263" x2="3036" y1="1556" y2="1556"/>
  <line id="Capline-L" style="fill:none;stroke:#27AAE1;opacity:1;stroke-width:0.5;" x1="263" x2="3036" y1="1485.54" y2="1485.54"/>
  <line id="right-margin-Black-S" style="fill:none;stroke:#00AEEF;stroke-width:0.5;opacity:1.0;" x1="3006.01" x2="3006.01" y1="600.785" y2="720.121"/>
  <line id="left-margin-Black-S" style="fill:none;stroke:#00AEEF;stroke-width:0.5;opacity:1.0;" x1="2860.79" x2="2860.79" y1="600.785" y2="720.121"/>
  <line id="right-margin-Regular-S" style="fill:none;stroke:#00AEEF;stroke-width:0.5;opacity:1.0;" x1="1517.18" x2="1517.18" y1="600.785" y2="720.121"/>
  <line id="left-margin-Regular-S" style="fill:none;stroke:#00AEEF;stroke-width:0.5;opacity:1.0;" x1="1382.51" x2="1382.51" y1="600.785" y2="720.121"/>
  <line id="right-margin-Ultralight-S" style="fill:none;stroke:#00AEEF;stroke-width:0.5;opacity:1.0;" x1="625.569" x2="625.569" y1="600.785" y2="720.121"/>
  <line id="left-margin-Ultralight-S" style="fill:none;stroke:#00AEEF;stroke-width:0.5;opacity:1.0;" x1="493.853" x2="493.853" y1="600.785" y2="720.121"/>
 </g>
 <g id="Symbols">
  <g id="Black-S" transform="matrix(1 0 0 1 2860.79 696)">
   <path class="monochrome-0 multicolor-0:tintColor hierarchical-0:secondary SFSymbolsPreviewWireframe" d="M116.14-13.644C114.93-13.524 113.69-13.465 112.46-13.465C104.11-13.465 96.81-16.089 89.75-18.624L88.18-19.181C83.58-20.943 78.78-22.112 73.88-22.66C72.84-22.76 71.78-22.8 70.64-22.8C66.54-22.692 62.45-22.276 58.42-21.557C54.05-20.775 49.63-20.33 45.19-20.225C42.35-20.207 39.51-20.51 36.73-21.129C28.86-22.706 21.87-27.206 17.21-33.715L17.21-29.719C17.23-27.137 17.85-24.595 19.03-22.293C19.2-21.955 19.39-21.627 19.58-21.289C19.64-21.179 19.71-21.08 19.78-20.97C19.91-20.742 20.05-20.523 20.2-20.294C20.28-20.175 20.37-20.056 20.46-19.927C20.6-19.728 20.75-19.519 20.9-19.32C20.99-19.191 21.09-19.072 21.19-18.942C21.34-18.744 21.51-18.545 21.67-18.346C21.78-18.237 21.87-18.117 21.98-17.998C22.17-17.779 22.36-17.571 22.56-17.362C22.65-17.272 22.74-17.173 22.83-17.083C23.13-16.775 23.43-16.487 23.75-16.189C23.77-16.175 23.79-16.158 23.81-16.139C24.11-15.87 24.42-15.602 24.74-15.344C24.85-15.254 24.97-15.165 25.08-15.075C25.32-14.886 25.56-14.697 25.8-14.518L26.22-14.22C26.45-14.051 26.69-13.892 26.93-13.733L27.38-13.435C27.63-13.286 27.88-13.127 28.14-12.978C28.29-12.888 28.44-12.799 28.6-12.709C28.88-12.55 29.17-12.391 29.47-12.232L29.86-12.023C30.29-11.804 30.73-11.596 31.19-11.397C31.23-11.367 31.28-11.357 31.33-11.327C31.74-11.148 32.15-10.98 32.57-10.811C32.73-10.751 32.89-10.691 33.06-10.632C33.29-10.552 33.51-10.463 33.75-10.373C33.82-10.355 33.89-10.331 33.97-10.304C34.33-10.184 34.69-10.075 35.05-9.956C35.26-9.896 35.47-9.826 35.69-9.767C36.13-9.637 36.58-9.528 37.02-9.419C37.15-9.389 37.28-9.349 37.41-9.319C37.45-9.309 37.48-9.299 37.52-9.29C38.09-9.16 38.67-9.051 39.24-8.961C39.38-8.932 39.52-8.912 39.66-8.892C39.79-8.872 39.93-8.842 40.06-8.822C40.21-8.803 40.35-8.793 40.5-8.773C41.08-8.703 41.65-8.644 42.23-8.604C42.36-8.584 42.5-8.564 42.63-8.554C42.72-8.556 42.81-8.552 42.9-8.544C43.67-8.504 44.43-8.475 45.19-8.475L45.51-8.475C45.66-8.475 45.8-8.485 45.95-8.485C46.36-8.494 46.78-8.504 47.19-8.524C47.41-8.534 47.63-8.544 47.84-8.554C48.24-8.584 48.63-8.604 49.02-8.634C49.15-8.644 49.27-8.654 49.39-8.663C49.47-8.675 49.56-8.682 49.64-8.683C50.24-8.743 50.84-8.793 51.44-8.862C51.47-8.871 51.51-8.874 51.54-8.872C52.18-8.952 52.83-9.031 53.47-9.121C53.67-9.141 53.87-9.17 54.06-9.2C54.54-9.27 55.01-9.33 55.49-9.399C55.68-9.429 55.88-9.459 56.07-9.489C56.68-9.578 57.29-9.668 57.89-9.767L59.72-10.035L60.29-10.125C60.77-10.194 61.24-10.264 61.72-10.324L62.32-10.413C62.96-10.493 63.61-10.582 64.25-10.652C64.26-10.649 64.28-10.653 64.3-10.662C64.92-10.731 65.54-10.791 66.16-10.841C66.36-10.86 66.56-10.87 66.76-10.89C67.16-10.92 67.57-10.95 67.97-10.97C68.18-10.98 68.4-10.99 68.62-11C69.04-11.02 69.46-11.029 69.88-11.039C70.14-11.039 70.39-11.049 70.64-11.049C71.4-11.049 72.17-11.02 72.94-10.98C73.36-10.95 73.79-10.93 74.21-10.89C74.92-10.821 75.63-10.741 76.32-10.642C76.55-10.612 76.77-10.572 76.99-10.532C77.47-10.463 77.95-10.383 78.42-10.294C78.69-10.244 78.96-10.194 79.23-10.135C79.65-10.055 80.07-9.966 80.48-9.876C80.78-9.807 81.08-9.737 81.37-9.658C81.73-9.578 82.08-9.489 82.43-9.399C82.72-9.32 83.02-9.24 83.32-9.161C83.66-9.061 84.01-8.972 84.35-8.862C84.64-8.783 84.94-8.693 85.23-8.604C85.57-8.495 85.91-8.395 86.24-8.286C86.53-8.196 86.82-8.097 87.11-8.008C87.44-7.888 87.78-7.779 88.11-7.67C88.53-7.52 88.95-7.381 89.37-7.232C90.88-6.685 92.4-6.139 93.95-5.592C94.01-5.572 94.07-5.552 94.14-5.522L94.32-5.463C94.97-5.234 95.62-5.015 96.28-4.797C96.32-4.787 96.35-4.767 96.39-4.757C97-4.558 97.62-4.359 98.23-4.17C98.38-4.121 98.53-4.081 98.68-4.031C99.33-3.832 99.98-3.643 100.63-3.464C100.73-3.435 100.84-3.415 100.94-3.385C101.53-3.226 102.12-3.077 102.71-2.938C102.8-2.918 102.89-2.888 102.99-2.868L103.14-2.838C103.73-2.699 104.33-2.58 104.93-2.46C105.01-2.441 105.1-2.428 105.19-2.421C105.7-2.321 106.22-2.232 106.75-2.152C106.83-2.142 106.92-2.122 107-2.112C107.14-2.093 107.28-2.083 107.42-2.063C107.67-2.033 107.92-1.993 108.18-1.963C108.43-1.933 108.68-1.914 108.94-1.894C109.19-1.864 109.45-1.844 109.7-1.824C109.82-1.814 109.93-1.804 110.05-1.794C110.13-1.785 110.22-1.794 110.31-1.785C111.02-1.745 111.73-1.715 112.46-1.715L112.72-1.715C112.8-1.715 112.88-1.725 112.96-1.725C113.65-1.735 114.34-1.765 115.04-1.814C115.14-1.824 115.24-1.824 115.35-1.834C115.5-1.844 115.65-1.864 115.81-1.874C116.27-1.924 116.73-1.983 117.18-2.053C117.22-2.063 117.26-2.063 117.31-2.073C117.46-2.103 117.62-2.133 117.77-2.172C117.94-2.202 118.1-2.232 118.27-2.262C118.48-2.311 118.68-2.371 118.88-2.421C119.04-2.461 119.19-2.5 119.34-2.54C119.37-2.55 119.4-2.55 119.43-2.56C119.59-2.61 119.73-2.66 119.88-2.709C120.05-2.759 120.23-2.819 120.4-2.878C120.57-2.938 120.74-3.007 120.91-3.067C121.08-3.137 121.25-3.196 121.41-3.266C121.57-3.336 121.73-3.405 121.89-3.485C122.05-3.554 122.21-3.624 122.36-3.703C122.52-3.783 122.67-3.862 122.82-3.942C122.97-4.022 123.12-4.101 123.26-4.19C123.41-4.27 123.55-4.359 123.69-4.449L124.11-4.717C124.24-4.807 124.37-4.906 124.5-4.996C124.63-5.095 124.76-5.185 124.89-5.284C125.01-5.373 125.13-5.483 125.25-5.582L125.61-5.88C125.72-5.99 125.83-6.089 125.94-6.199C126.05-6.308 126.16-6.407 126.26-6.517C126.28-6.537 126.3-6.547 126.32-6.566C126.37-6.626 126.41-6.676 126.46-6.735C126.62-6.914 126.78-7.093 126.93-7.282L127.14-7.551C127.27-7.729 127.39-7.908 127.51-8.077C127.55-8.137 127.59-8.197 127.63-8.246C127.66-8.291 127.68-8.337 127.7-8.386C127.77-8.495 127.83-8.604 127.89-8.714C127.96-8.843 128.03-8.972 128.09-9.091C128.14-9.211 128.19-9.32 128.24-9.439C128.27-9.509 128.31-9.579 128.34-9.658C128.38-9.757 128.42-9.867 128.46-9.976C128.58-10.314 128.68-10.662 128.77-11.01C128.79-11.109 128.81-11.209 128.84-11.308C128.87-11.428 128.9-11.547 128.92-11.666C128.94-11.756 128.95-11.855 128.97-11.954C129.01-12.183 129.05-12.422 129.08-12.66C129.1-12.829 129.12-13.008 129.14-13.187C129.16-13.426 129.18-13.664 129.19-13.903C129.19-14.022 129.21-14.132 129.21-14.241L129.21-19.807C125.78-16.208 121.12-14.011 116.14-13.644Z"/>
   <path class="monochrome-1 multicolor-1:tintColor hierarchical-1:primary SFSymbolsPreviewWireframe" d="M71.86-70.715C83.2-70.715 95.28-69.222 104.71-64.975C112.71-61.391 119.28-55.224 123.37-47.457C124.67-45.136 125.81-42.733 126.79-40.264C128.23-36.928 129.05-33.357 129.21-29.727C129.21-29.487 129.2-29.246 129.19-28.996C129.18-28.755 129.16-28.515 129.14-28.275C129.12-28.095 129.1-27.924 129.08-27.743C129.05-27.503 129.01-27.262 128.97-27.031C128.93-26.811 128.89-26.591 128.84-26.381C128.79-26.123 128.72-25.869 128.64-25.619C128.59-25.423 128.53-25.229 128.46-25.039C128.4-24.866 128.33-24.695 128.25-24.529C128.22-24.428 128.18-24.33 128.13-24.237C128.06-24.076 127.98-23.917 127.89-23.766C127.77-23.531 127.63-23.304 127.48-23.085C127.39-22.965 127.31-22.835 127.22-22.715C127.13-22.578 127.04-22.447 126.93-22.324C125.91-21.064 124.67-20.007 123.26-19.209C123.15-19.139 123.02-19.069 122.9-18.999C122.42-18.732 121.92-18.492 121.41-18.278C121.27-18.218 121.12-18.168 120.99-18.108C120.45-17.891 119.9-17.703 119.34-17.546C119.19-17.506 119.04-17.465 118.88-17.425C118.3-17.266 117.71-17.139 117.11-17.045C116.68-16.975 116.25-16.925 115.81-16.875C115.2-16.815 114.6-16.775 114-16.755C113.65-16.735 113.3-16.736 112.96-16.726C112.79-16.716 112.63-16.715 112.47-16.715C112.09-16.715 111.7-16.724 111.33-16.734C110.98-16.744 110.64-16.765 110.29-16.785C110.09-16.795 109.9-16.805 109.7-16.826C109.44-16.845 109.19-16.866 108.93-16.896C108.19-16.956 107.46-17.046 106.74-17.166C106.48-17.196 106.22-17.235 105.96-17.285C104.11-17.602 102.29-18.014 100.49-18.518C100.01-18.648 99.53-18.789 99.06-18.939C98.59-19.079 98.11-19.229 97.64-19.379C97.17-19.529 96.7-19.68 96.24-19.84C93.9-20.622 91.62-21.464 89.36-22.275C88.34-22.645 87.3-23.005 86.24-23.336C85.91-23.446 85.57-23.557 85.23-23.657C84.6-23.857 83.96-24.048 83.32-24.218C83.03-24.308 82.73-24.388 82.43-24.458C81.92-24.599 81.41-24.728 80.89-24.848L80.47-24.939C79.14-25.249 77.79-25.5 76.41-25.7C76.38-25.7 76.35-25.709 76.32-25.709C76.13-25.739 75.92-25.77 75.72-25.79C75.55-25.81 75.39-25.839 75.22-25.849C74.88-25.889 74.55-25.93 74.21-25.96C73.91-25.99 73.61-26.01 73.31-26.03C73.19-26.04 73.07-26.051 72.96-26.051L72.93-26.051C72.55-26.081 72.17-26.09 71.79-26.1C71.41-26.11 71.02-26.121 70.64-26.121C70.39-26.121 70.13-26.12 69.88-26.111C69.78-26.111 69.68-26.11 69.57-26.1C69.26-26.1 68.95-26.09 68.63-26.07C68.34-26.06 68.05-26.05 67.76-26.03C67.52-26.02 67.28-26.001 67.04-25.981C66.95-25.979 66.86-25.971 66.77-25.96C66.64-25.95 66.52-25.94 66.39-25.93C64.96-25.81 63.54-25.65 62.12-25.449C61.51-25.369 60.9-25.28 60.29-25.19C59.49-25.08 58.69-24.949 57.89-24.828C56.42-24.598 54.95-24.378 53.47-24.178C53.1-24.128 52.73-24.077 52.36-24.037C51.71-23.947 51.06-23.877 50.4-23.816C49.89-23.756 49.37-23.706 48.85-23.676C48.57-23.656 48.29-23.637 48-23.617C47.73-23.597 47.46-23.586 47.19-23.576C46.52-23.546 45.86-23.525 45.19-23.525C44.81-23.525 44.43-23.536 44.05-23.546C42.19-23.589 40.33-23.791 38.49-24.148C38.16-24.208 37.84-24.278 37.52-24.348C37.35-24.388 37.19-24.428 37.03-24.478C36.58-24.588 36.12-24.708 35.68-24.828C35.46-24.888 35.26-24.958 35.05-25.028C34.69-25.139 34.33-25.248 33.97-25.369C33.66-25.469 33.36-25.58 33.06-25.7C32.89-25.76 32.72-25.82 32.57-25.89C32.36-25.97 32.15-26.05 31.95-26.14C31.74-26.23 31.53-26.32 31.33-26.41C31.28-26.43 31.23-26.452 31.19-26.472C31.02-26.542 30.85-26.622 30.69-26.702C29.96-27.042 29.26-27.404 28.59-27.794L28.14-28.064C27.88-28.214 27.63-28.374 27.38-28.534C27.23-28.624 27.08-28.725 26.93-28.826C26.68-28.976 26.45-29.141 26.22-29.317L25.8-29.617C25.61-29.761 25.42-29.913 25.23-30.066C25.09-30.171 24.95-30.269 24.82-30.378C24.79-30.395 24.76-30.42 24.74-30.448C24.46-30.678 24.18-30.918 23.92-31.158C23.54-31.488 23.18-31.84 22.83-32.2C22.74-32.29 22.65-32.391 22.56-32.491C22.36-32.701 22.17-32.912 21.98-33.123C21.87-33.242 21.77-33.362 21.67-33.482C21.51-33.672 21.35-33.873 21.19-34.073C21.08-34.193 20.99-34.32 20.9-34.454C20.75-34.654 20.6-34.865 20.46-35.066C20.36-35.186 20.28-35.314 20.2-35.446C19.99-35.747 19.8-36.057 19.62-36.367C19.6-36.388 19.59-36.412 19.58-36.437C19.38-36.768 19.2-37.109 19.03-37.449C17.85-39.768 17.23-42.33 17.21-44.931C17.24-48.915 18.77-52.741 21.5-55.64C31.25-66.458 53.03-70.644 71.34-70.705C71.51-70.715 71.69-70.715 71.86-70.715ZM101.48-47.367C98.01-47.367 100.58-43.253 100.58-39.286C100.58-35.318 100.7-32.102 104.16-32.102C107.63-32.102 111.33-35.318 111.33-39.286C111.33-43.253 104.94-47.367 101.48-47.367Z"/>
  </g>
  <g id="Regular-S" transform="matrix(1 0 0 1 1382.51 696)">
   <path class="monochrome-0 multicolor-0:tintColor hierarchical-0:secondary SFSymbolsPreviewWireframe" d="M110.42-12.929C109.21-12.809 107.97-12.75 106.74-12.75C98.39-12.75 91.09-15.374 84.03-17.909L82.46-18.466C77.86-20.227 73.06-21.397 68.16-21.945C67.12-22.045 66.06-22.085 64.92-22.085C60.82-21.977 56.73-21.561 52.7-20.842C48.33-20.06 43.91-19.615 39.47-19.51C36.63-19.492 33.79-19.795 31.01-20.414C23.14-21.991 16.15-26.491 11.49-33L11.49-29.004C11.51-26.422 12.13-23.88 13.31-21.578C13.48-21.24 13.67-20.911 13.86-20.574C13.92-20.464 13.99-20.365 14.06-20.255C14.19-20.027 14.33-19.808 14.48-19.579C14.56-19.46 14.65-19.341 14.74-19.212C14.88-19.013 15.03-18.804 15.18-18.605C15.27-18.476 15.37-18.357 15.47-18.227C15.62-18.029 15.79-17.83 15.95-17.631C16.06-17.522 16.15-17.402 16.26-17.283C16.45-17.064 16.64-16.856 16.84-16.647C16.93-16.557 17.02-16.458 17.11-16.368C17.41-16.06 17.71-15.772 18.03-15.474C18.05-15.46 18.07-15.443 18.09-15.424C18.39-15.155 18.7-14.887 19.02-14.628C19.13-14.539 19.25-14.45 19.36-14.36C19.6-14.171 19.84-13.982 20.08-13.803L20.5-13.505C20.73-13.336 20.97-13.177 21.21-13.018L21.66-12.72C21.91-12.571 22.16-12.412 22.42-12.263C22.57-12.173 22.72-12.084 22.88-11.994C23.16-11.835 23.45-11.676 23.75-11.517L24.14-11.308C24.57-11.089 25.01-10.881 25.47-10.682C25.51-10.652 25.56-10.642 25.61-10.612C26.02-10.433 26.43-10.264 26.85-10.095C27.01-10.036 27.17-9.976 27.34-9.917C27.57-9.837 27.79-9.748 28.03-9.658C28.1-9.639 28.17-9.616 28.25-9.589C28.61-9.469 28.97-9.36 29.33-9.241C29.54-9.181 29.75-9.111 29.97-9.052C30.41-8.922 30.86-8.813 31.3-8.704C31.43-8.674 31.56-8.634 31.69-8.604C31.73-8.594 31.76-8.584 31.8-8.575C32.37-8.445 32.95-8.336 33.52-8.246C33.66-8.217 33.8-8.197 33.94-8.177C34.07-8.157 34.21-8.127 34.34-8.107C34.49-8.088 34.63-8.078 34.78-8.058C35.36-7.988 35.93-7.928 36.51-7.889C36.64-7.869 36.78-7.849 36.91-7.839C37-7.841 37.09-7.837 37.18-7.829C37.95-7.789 38.71-7.76 39.47-7.76L39.79-7.76C39.94-7.76 40.08-7.77 40.23-7.77C40.64-7.779 41.06-7.789 41.47-7.809C41.69-7.819 41.91-7.829 42.12-7.839C42.52-7.869 42.91-7.889 43.3-7.919C43.43-7.929 43.55-7.938 43.67-7.948C43.75-7.96 43.84-7.967 43.92-7.968C44.52-8.028 45.12-8.078 45.72-8.147C45.75-8.156 45.79-8.159 45.82-8.157C46.46-8.237 47.11-8.316 47.75-8.406C47.95-8.426 48.15-8.455 48.34-8.485C48.82-8.555 49.29-8.614 49.77-8.684C49.96-8.714 50.16-8.744 50.35-8.774C50.96-8.863 51.57-8.953 52.17-9.052L54-9.32L54.57-9.41C55.05-9.479 55.52-9.549 56-9.609L56.6-9.698C57.24-9.778 57.89-9.867 58.53-9.937C58.54-9.934 58.56-9.938 58.58-9.947C59.2-10.016 59.82-10.076 60.44-10.126C60.64-10.145 60.84-10.155 61.04-10.175C61.44-10.205 61.85-10.235 62.25-10.255C62.46-10.265 62.68-10.275 62.9-10.285C63.32-10.304 63.74-10.314 64.16-10.324C64.42-10.324 64.67-10.334 64.92-10.334C65.68-10.334 66.45-10.304 67.22-10.265C67.64-10.235 68.07-10.215 68.49-10.175C69.2-10.106 69.91-10.026 70.6-9.927C70.83-9.897 71.05-9.857 71.27-9.817C71.75-9.748 72.23-9.668 72.7-9.579C72.97-9.529 73.24-9.479 73.51-9.42C73.93-9.34 74.35-9.251 74.76-9.161C75.06-9.092 75.36-9.022 75.65-8.943C76.01-8.863 76.36-8.774 76.71-8.684C77-8.605 77.3-8.525 77.6-8.446C77.94-8.346 78.29-8.257 78.63-8.147C78.92-8.068 79.22-7.978 79.51-7.889C79.85-7.78 80.19-7.68 80.52-7.571C80.81-7.481 81.1-7.382 81.39-7.293C81.72-7.173 82.06-7.064 82.39-6.954C82.81-6.805 83.23-6.666 83.65-6.517C85.16-5.97 86.68-5.424 88.23-4.877C88.29-4.857 88.35-4.837 88.42-4.807L88.6-4.748C89.25-4.519 89.9-4.3 90.56-4.082C90.6-4.072 90.63-4.052 90.67-4.042C91.28-3.843 91.9-3.644 92.51-3.455C92.66-3.406 92.81-3.366 92.96-3.316C93.61-3.117 94.26-2.928 94.91-2.749C95.01-2.72 95.12-2.7 95.22-2.67C95.81-2.511 96.4-2.362 96.99-2.222C97.08-2.203 97.17-2.173 97.27-2.153L97.42-2.123C98.01-1.984 98.61-1.865 99.21-1.745C99.29-1.726 99.38-1.713 99.47-1.706C99.98-1.606 100.5-1.517 101.03-1.437C101.11-1.427 101.2-1.407 101.28-1.397C101.42-1.378 101.56-1.368 101.7-1.348C101.95-1.318 102.2-1.278 102.46-1.248C102.71-1.218 102.96-1.199 103.22-1.179C103.47-1.149 103.73-1.129 103.98-1.109C104.1-1.099 104.21-1.089 104.33-1.079C104.41-1.07 104.5-1.079 104.59-1.07C105.3-1.03 106.01-1 106.74-1L107-1C107.08-1 107.16-1.01 107.24-1.01C107.93-1.02 108.62-1.05 109.32-1.099C109.42-1.109 109.52-1.109 109.63-1.119C109.78-1.129 109.93-1.149 110.09-1.159C110.55-1.209 111.01-1.268 111.46-1.338C111.5-1.348 111.54-1.348 111.59-1.358C111.74-1.388 111.9-1.418 112.05-1.457C112.22-1.487 112.38-1.517 112.55-1.547C112.76-1.596 112.96-1.656 113.16-1.706C113.32-1.746 113.47-1.785 113.62-1.825C113.65-1.835 113.68-1.835 113.71-1.845C113.87-1.895 114.01-1.944 114.16-1.994C114.33-2.044 114.51-2.104 114.68-2.163C114.85-2.223 115.02-2.292 115.19-2.352C115.36-2.422 115.53-2.481 115.69-2.551C115.85-2.621 116.01-2.69 116.17-2.77C116.33-2.839 116.49-2.909 116.64-2.988C116.8-3.068 116.95-3.147 117.1-3.227C117.25-3.306 117.4-3.386 117.54-3.475C117.69-3.555 117.83-3.644 117.97-3.734L118.39-4.002C118.52-4.092 118.65-4.191 118.78-4.281C118.91-4.38 119.04-4.47 119.17-4.569C119.29-4.658 119.41-4.768 119.53-4.867L119.89-5.165C120-5.275 120.11-5.374 120.22-5.484C120.33-5.593 120.44-5.692 120.54-5.802C120.56-5.822 120.58-5.831 120.6-5.851C120.65-5.911 120.69-5.961 120.74-6.02C120.9-6.199 121.06-6.378 121.21-6.567L121.42-6.836C121.55-7.014 121.67-7.193 121.79-7.362C121.83-7.422 121.87-7.482 121.91-7.531C121.94-7.576 121.96-7.622 121.98-7.671C122.05-7.78 122.11-7.889 122.17-7.999C122.24-8.128 122.31-8.257 122.37-8.376C122.42-8.496 122.47-8.605 122.52-8.724C122.55-8.794 122.59-8.864 122.62-8.943C122.66-9.042 122.7-9.152 122.74-9.261C122.86-9.599 122.96-9.947 123.05-10.295C123.07-10.394 123.09-10.494 123.12-10.593C123.15-10.713 123.18-10.832 123.2-10.951C123.22-11.041 123.23-11.14 123.25-11.239C123.29-11.468 123.33-11.707 123.36-11.945C123.38-12.114 123.4-12.293 123.42-12.472C123.44-12.711 123.46-12.949 123.47-13.188C123.47-13.307 123.49-13.417 123.49-13.526L123.49-19.092C120.06-15.493 115.4-13.296 110.42-12.929Z"/>
   <path class="monochrome-1 multicolor-1:tintColor hierarchical-1:primary SFSymbolsPreviewWireframe" d="M66.14-70C77.48-70 89.56-68.507 98.99-64.26C106.99-60.676 113.56-54.509 117.65-46.742C118.95-44.421 120.09-42.018 121.07-39.549C122.51-36.213 123.33-32.642 123.49-29.012C123.49-28.772 123.48-28.531 123.47-28.281C123.46-28.04 123.44-27.8 123.42-27.56C123.4-27.38 123.38-27.209 123.36-27.028C123.33-26.788 123.29-26.547 123.25-26.316C123.21-26.096 123.17-25.876 123.12-25.666C123.07-25.408 123-25.154 122.92-24.904C122.87-24.708 122.81-24.514 122.74-24.324C122.68-24.15 122.61-23.98 122.53-23.813C122.5-23.713 122.46-23.615 122.41-23.522C122.34-23.36 122.26-23.202 122.17-23.051C122.05-22.816 121.91-22.589 121.76-22.37C121.67-22.25 121.59-22.12 121.5-22C121.41-21.863 121.32-21.732 121.21-21.609C120.19-20.348 118.95-19.292 117.54-18.494C117.43-18.424 117.3-18.354 117.18-18.284C116.7-18.017 116.2-17.777 115.69-17.563C115.55-17.503 115.4-17.453 115.27-17.393C114.73-17.176 114.18-16.988 113.62-16.831C113.47-16.791 113.32-16.75 113.16-16.71C112.58-16.551 111.99-16.424 111.39-16.33C110.96-16.26 110.53-16.21 110.09-16.16C109.48-16.099 108.88-16.06 108.28-16.04C107.93-16.02 107.58-16.02 107.24-16.011C107.07-16.001 106.91-16 106.75-16C106.37-16 105.98-16.009 105.61-16.019C105.26-16.029 104.92-16.05 104.57-16.07C104.37-16.08 104.18-16.09 103.98-16.11C103.72-16.13 103.47-16.151 103.21-16.181C102.47-16.241 101.74-16.33 101.02-16.451C100.76-16.481 100.5-16.52 100.24-16.57C98.39-16.887 96.57-17.299 94.77-17.803C94.29-17.933 93.81-18.074 93.34-18.224C92.87-18.364 92.39-18.514 91.92-18.664C91.45-18.814 90.98-18.965 90.52-19.125C88.18-19.907 85.9-20.748 83.64-21.56C82.62-21.93 81.58-22.29 80.52-22.621C80.19-22.731 79.85-22.842 79.51-22.942C78.88-23.142 78.24-23.333 77.6-23.503C77.31-23.593 77.01-23.673 76.71-23.743C76.2-23.883 75.69-24.013 75.17-24.133L74.75-24.224C73.42-24.534 72.07-24.785 70.69-24.985C70.66-24.985 70.63-24.994 70.6-24.994C70.41-25.024 70.2-25.054 70-25.075C69.83-25.095 69.67-25.124 69.5-25.134C69.16-25.174 68.83-25.215 68.49-25.245C68.19-25.275 67.89-25.295 67.59-25.315C67.47-25.325 67.35-25.336 67.24-25.336L67.21-25.336C66.83-25.366 66.45-25.375 66.07-25.385C65.69-25.395 65.3-25.406 64.92-25.406C64.67-25.406 64.41-25.405 64.16-25.395C64.06-25.395 63.96-25.395 63.85-25.385C63.54-25.385 63.23-25.375 62.91-25.355C62.62-25.345 62.33-25.335 62.04-25.315C61.8-25.305 61.56-25.286 61.32-25.266C61.23-25.264 61.14-25.256 61.05-25.245C60.92-25.235 60.8-25.225 60.67-25.215C59.24-25.095 57.82-24.935 56.4-24.734C55.79-24.654 55.18-24.565 54.57-24.475C53.77-24.365 52.97-24.234 52.17-24.113C50.7-23.883 49.23-23.663 47.75-23.463C47.38-23.413 47.01-23.362 46.64-23.322C45.99-23.232 45.34-23.162 44.68-23.101C44.17-23.041 43.65-22.991 43.13-22.961C42.85-22.941 42.57-22.922 42.28-22.901C42.01-22.881 41.74-22.871 41.47-22.861C40.8-22.831 40.14-22.81 39.47-22.81C39.09-22.81 38.71-22.821 38.33-22.831C36.47-22.874 34.61-23.076 32.77-23.433C32.44-23.493 32.12-23.563 31.8-23.633C31.63-23.673 31.47-23.713 31.31-23.763C30.86-23.873 30.4-23.993 29.96-24.113C29.74-24.173 29.54-24.243 29.33-24.313C28.97-24.423 28.61-24.533 28.25-24.654C27.94-24.754 27.64-24.865 27.34-24.985C27.17-25.045 27-25.105 26.85-25.174C26.64-25.255 26.43-25.335 26.23-25.425C26.02-25.515 25.81-25.605 25.61-25.695C25.56-25.715 25.51-25.737 25.47-25.757C25.3-25.827 25.13-25.907 24.97-25.987C24.24-26.327 23.54-26.689 22.87-27.079L22.42-27.349C22.16-27.499 21.91-27.659 21.66-27.819C21.51-27.909 21.36-28.01 21.21-28.11C20.96-28.261 20.73-28.426 20.5-28.602L20.08-28.901C19.89-29.046 19.7-29.198 19.51-29.35C19.37-29.456 19.23-29.554 19.1-29.663C19.07-29.68 19.04-29.705 19.02-29.733C18.74-29.963 18.46-30.203 18.2-30.443C17.82-30.773 17.46-31.125 17.11-31.485C17.02-31.575 16.93-31.676 16.84-31.776C16.64-31.986 16.45-32.197 16.26-32.407C16.15-32.527 16.05-32.647 15.95-32.767C15.79-32.957 15.63-33.158 15.47-33.358C15.36-33.478 15.27-33.605 15.18-33.739C15.03-33.939 14.88-34.15 14.74-34.351C14.64-34.471 14.56-34.599 14.48-34.731C14.27-35.032 14.08-35.342 13.9-35.652C13.88-35.673 13.87-35.697 13.86-35.722C13.66-36.053 13.48-36.394 13.31-36.734C12.13-39.053 11.51-41.615 11.49-44.216C11.52-48.2 13.05-52.026 15.78-54.925C25.53-65.743 47.31-69.929 65.62-69.989C65.79-69.999 65.97-70 66.14-70ZM95.76-46.652C92.29-46.652 94.86-42.538 94.86-38.571C94.86-34.603 94.98-31.387 98.44-31.387C101.91-31.387 105.61-34.603 105.61-38.571C105.61-42.538 99.22-46.652 95.76-46.652Z"/>
  </g>
  <g id="Ultralight-S" transform="matrix(1 0 0 1 493.853 696)">
   <path class="monochrome-0 multicolor-0:tintColor hierarchical-0:secondary SFSymbolsPreviewWireframe" d="M109.081-11.929C107.871-11.809 106.631-11.75 105.402-11.75C97.044-11.75 89.746-14.374 82.688-16.909L81.118-17.466C76.521-19.227 71.717-20.397 66.822-20.945C65.772-21.045 64.712-21.085 63.573-21.085C59.475-20.977 55.391-20.561 51.356-19.842C46.988-19.06 42.566-18.615 38.13-18.51C35.285-18.492 32.448-18.795 29.672-19.414C21.792-20.991 14.811-25.491 10.147-32L10.147-28.004C10.168-25.422 10.79-22.88 11.967-20.578C12.137-20.24 12.327-19.911 12.516-19.574C12.576-19.464 12.646-19.365 12.716-19.255C12.846-19.027 12.986-18.808 13.136-18.579C13.216-18.46 13.306-18.341 13.396-18.212C13.536-18.013 13.686-17.804 13.836-17.605C13.926-17.476 14.026-17.357 14.126-17.227C14.276-17.029 14.446-16.83 14.606-16.631C14.716-16.522 14.806-16.402 14.916-16.283C15.106-16.064 15.296-15.856 15.496-15.647C15.586-15.557 15.676-15.458 15.766-15.368C16.066-15.06 16.365-14.772 16.685-14.474C16.708-14.46 16.728-14.443 16.745-14.424C17.045-14.155 17.355-13.887 17.675-13.628C17.785-13.539 17.905-13.45 18.015-13.36C18.255-13.171 18.495-12.982 18.735-12.803L19.155-12.505C19.385-12.336 19.625-12.177 19.864-12.018L20.314-11.72C20.564-11.571 20.814-11.412 21.074-11.263C21.224-11.173 21.374-11.084 21.534-10.994C21.814-10.835 22.104-10.676 22.404-10.517L22.794-10.308C23.224-10.089 23.663-9.881 24.123-9.682C24.163-9.652 24.213-9.642 24.263-9.612C24.673-9.433 25.083-9.264 25.503-9.095C25.663-9.036 25.823-8.976 25.993-8.917C26.223-8.837 26.443-8.748 26.683-8.658C26.757-8.639 26.831-8.616 26.903-8.589C27.263-8.469 27.622-8.36 27.982-8.241C28.192-8.181 28.402-8.111 28.622-8.052C29.062-7.922 29.512-7.813 29.962-7.704C30.092-7.674 30.222-7.634 30.352-7.604C30.392-7.594 30.422-7.584 30.462-7.575C31.032-7.445 31.611-7.336 32.181-7.246C32.321-7.217 32.461-7.197 32.601-7.177C32.731-7.157 32.871-7.127 33.001-7.107C33.151-7.088 33.291-7.078 33.441-7.058C34.021-6.988 34.591-6.928 35.17-6.889C35.3-6.869 35.44-6.849 35.57-6.839C35.66-6.841 35.751-6.837 35.84-6.829C36.61-6.789 37.37-6.76 38.13-6.76L38.45-6.76C38.6-6.76 38.74-6.77 38.889-6.77C39.299-6.779 39.719-6.789 40.129-6.809C40.349-6.819 40.569-6.829 40.779-6.839C41.179-6.869 41.569-6.889 41.959-6.919C42.089-6.929 42.209-6.938 42.329-6.948C42.411-6.96 42.495-6.967 42.578-6.968C43.178-7.028 43.778-7.078 44.378-7.147C44.411-7.156 44.444-7.159 44.478-7.157C45.118-7.237 45.768-7.316 46.407-7.406C46.607-7.426 46.807-7.455 46.997-7.485C47.477-7.555 47.947-7.614 48.427-7.684C48.617-7.714 48.817-7.744 49.007-7.774C49.617-7.863 50.226-7.953 50.826-8.052L52.656-8.32L53.226-8.41C53.706-8.479 54.175-8.549 54.655-8.609L55.255-8.698C55.895-8.778 56.545-8.867 57.185-8.937C57.202-8.934 57.22-8.938 57.235-8.947C57.854-9.016 58.474-9.076 59.094-9.126C59.294-9.145 59.494-9.155 59.694-9.175C60.094-9.205 60.504-9.235 60.904-9.255C61.114-9.265 61.333-9.275 61.553-9.285C61.973-9.304 62.393-9.314 62.813-9.324C63.073-9.324 63.323-9.334 63.573-9.334C64.333-9.334 65.102-9.304 65.872-9.265C66.292-9.235 66.722-9.215 67.152-9.175C67.862-9.106 68.572-9.026 69.261-8.927C69.491-8.897 69.711-8.857 69.931-8.817C70.411-8.748 70.891-8.668 71.361-8.579C71.631-8.529 71.901-8.479 72.171-8.42C72.59-8.34 73.01-8.251 73.42-8.161C73.72-8.092 74.02-8.022 74.31-7.943C74.67-7.863 75.02-7.774 75.37-7.684C75.66-7.605 75.959-7.525 76.259-7.446C76.599-7.346 76.949-7.257 77.289-7.147C77.579-7.068 77.879-6.978 78.169-6.889C78.509-6.78 78.849-6.68 79.179-6.571C79.469-6.481 79.759-6.382 80.048-6.293C80.378-6.173 80.718-6.064 81.048-5.954C81.468-5.805 81.888-5.666 82.308-5.517C83.817-4.97 85.337-4.424 86.887-3.877C86.947-3.857 87.007-3.837 87.077-3.807L87.257-3.748C87.906-3.519 88.556-3.3 89.216-3.082C89.256-3.072 89.286-3.052 89.326-3.042C89.936-2.843 90.556-2.644 91.166-2.455C91.315-2.406 91.465-2.366 91.615-2.316C92.265-2.117 92.915-1.928 93.565-1.749C93.665-1.72 93.775-1.7 93.875-1.67C94.465-1.511 95.055-1.362 95.644-1.222C95.734-1.203 95.824-1.173 95.924-1.153L96.074-1.123C96.664-0.984 97.264-0.865 97.864-0.745C97.949-0.726 98.036-0.713 98.124-0.706C98.634-0.606 99.153-0.517 99.683-0.437C99.763-0.427 99.853-0.407 99.933-0.397C100.073-0.378 100.213-0.368 100.353-0.348C100.603-0.318 100.853-0.278 101.113-0.248C101.363-0.218 101.613-0.199 101.873-0.179C102.123-0.149 102.383-0.129 102.632-0.109C102.752-0.099 102.862-0.089 102.982-0.079C103.062-0.07 103.152-0.079 103.242-0.07C103.952-0.03 104.672 0 105.402 0L105.662 0C105.742 0 105.822-0.01 105.902-0.01C106.591-0.02 107.281-0.05 107.981-0.099C108.081-0.109 108.181-0.109 108.291-0.119C108.441-0.129 108.591-0.149 108.751-0.159C109.211-0.209 109.671-0.268 110.12-0.338C110.16-0.348 110.2-0.348 110.25-0.358C110.4-0.388 110.56-0.418 110.71-0.457C110.88-0.487 111.04-0.517 111.21-0.547C111.42-0.596 111.62-0.656 111.82-0.706C111.98-0.746 112.13-0.785 112.28-0.825C112.31-0.835 112.34-0.835 112.37-0.845C112.53-0.895 112.67-0.944 112.82-0.994C112.99-1.044 113.17-1.104 113.34-1.163C113.509-1.223 113.679-1.292 113.849-1.352C114.019-1.422 114.189-1.481 114.349-1.551C114.509-1.621 114.669-1.69 114.829-1.77C114.989-1.839 115.149-1.909 115.299-1.988C115.459-2.068 115.609-2.147 115.759-2.227C115.909-2.306 116.059-2.386 116.199-2.475C116.349-2.555 116.489-2.644 116.629-2.734L117.049-3.002C117.179-3.092 117.308-3.191 117.438-3.281C117.568-3.38 117.698-3.47 117.828-3.569C117.948-3.658 118.068-3.768 118.188-3.867L118.548-4.165C118.658-4.275 118.768-4.374 118.878-4.484C118.988-4.593 119.098-4.692 119.198-4.802C119.218-4.822 119.238-4.831 119.258-4.851C119.308-4.911 119.348-4.961 119.398-5.02C119.558-5.199 119.718-5.378 119.868-5.567L120.078-5.836C120.208-6.014 120.328-6.193 120.448-6.362C120.488-6.422 120.528-6.482 120.568-6.531C120.595-6.576 120.618-6.622 120.637-6.671C120.707-6.78 120.767-6.889 120.827-6.999C120.897-7.128 120.967-7.257 121.027-7.376C121.077-7.496 121.127-7.605 121.177-7.724C121.207-7.794 121.247-7.864 121.277-7.943C121.317-8.042 121.357-8.152 121.397-8.261C121.517-8.599 121.617-8.947 121.707-9.295C121.727-9.394 121.747-9.494 121.777-9.593C121.807-9.713 121.837-9.832 121.857-9.951C121.877-10.041 121.887-10.14 121.907-10.239C121.947-10.468 121.987-10.707 122.017-10.945C122.037-11.114 122.057-11.293 122.077-11.472C122.097-11.711 122.117-11.949 122.127-12.188C122.127-12.307 122.147-12.417 122.147-12.526L122.147-18.092C118.714-14.493 114.055-12.296 109.081-11.929Z"/>
   <path class="monochrome-1 multicolor-1:tintColor hierarchical-1:primary SFSymbolsPreviewWireframe" d="M64.802-69C76.139-69 88.217-67.507 97.644-63.26C105.646-59.676 112.219-53.509 116.309-45.742C117.603-43.421 118.745-41.018 119.728-38.549C121.164-35.213 121.984-31.642 122.147-28.012C122.147-27.772 122.136-27.531 122.126-27.281C122.116-27.04 122.097-26.8 122.077-26.56C122.057-26.38 122.037-26.209 122.017-26.028C121.988-25.788 121.947-25.547 121.907-25.316C121.867-25.096 121.828-24.876 121.778-24.666C121.725-24.408 121.657-24.154 121.576-23.904C121.527-23.708 121.468-23.514 121.398-23.324C121.337-23.15 121.266-22.98 121.188-22.813C121.158-22.713 121.117-22.615 121.067-22.522C120.997-22.36 120.917-22.202 120.827-22.051C120.704-21.816 120.567-21.589 120.418-21.37C120.328-21.25 120.247-21.12 120.157-21C120.07-20.863 119.974-20.732 119.868-20.609C118.852-19.348 117.607-18.292 116.199-17.494C116.089-17.424 115.958-17.354 115.838-17.284C115.355-17.017 114.857-16.777 114.349-16.563C114.209-16.503 114.058-16.453 113.929-16.393C113.389-16.176 112.839-15.988 112.28-15.831C112.13-15.791 111.979-15.75 111.819-15.71C111.237-15.551 110.646-15.424 110.05-15.33C109.62-15.26 109.19-15.21 108.751-15.16C108.141-15.099 107.541-15.06 106.941-15.04C106.591-15.02 106.241-15.02 105.901-15.011C105.731-15.001 105.572-15 105.402-15C105.022-15 104.641-15.009 104.271-15.019C103.922-15.029 103.581-15.05 103.231-15.07C103.032-15.08 102.841-15.09 102.642-15.11C102.382-15.13 102.122-15.151 101.863-15.181C101.123-15.241 100.393-15.33 99.673-15.451C99.413-15.481 99.153-15.52 98.894-15.57C97.051-15.887 95.226-16.299 93.425-16.803C92.945-16.933 92.465-17.074 91.995-17.224C91.525-17.364 91.045-17.514 90.576-17.664C90.106-17.814 89.635-17.965 89.175-18.125C86.836-18.907 84.557-19.748 82.298-20.56C81.278-20.93 80.238-21.29 79.178-21.621C78.848-21.731 78.508-21.842 78.168-21.942C77.539-22.142 76.898-22.333 76.259-22.503C75.969-22.593 75.669-22.673 75.369-22.743C74.86-22.883 74.35-23.013 73.831-23.133L73.411-23.224C72.081-23.534 70.731-23.785 69.351-23.985C69.321-23.985 69.292-23.994 69.262-23.994C69.062-24.024 68.861-24.054 68.662-24.075C68.492-24.095 68.331-24.124 68.161-24.134C67.821-24.174 67.491-24.215 67.151-24.245C66.851-24.275 66.551-24.295 66.251-24.315C66.131-24.325 66.012-24.336 65.892-24.336L65.871-24.336C65.492-24.366 65.102-24.375 64.723-24.385C64.343-24.395 63.953-24.406 63.573-24.406C63.323-24.406 63.063-24.405 62.813-24.395C62.713-24.395 62.613-24.395 62.503-24.385C62.194-24.385 61.883-24.375 61.563-24.355C61.273-24.345 60.983-24.335 60.693-24.315C60.454-24.305 60.214-24.286 59.974-24.266C59.884-24.264 59.794-24.256 59.704-24.245C59.575-24.235 59.454-24.225 59.325-24.215C57.895-24.095 56.475-23.935 55.055-23.734C54.446-23.654 53.836-23.565 53.226-23.475C52.426-23.365 51.626-23.234 50.826-23.113C49.357-22.883 47.887-22.663 46.408-22.463C46.038-22.413 45.668-22.362 45.298-22.322C44.648-22.232 43.997-22.162 43.338-22.101C42.828-22.041 42.308-21.991 41.788-21.961C41.509-21.941 41.229-21.922 40.939-21.901C40.669-21.881 40.399-21.871 40.129-21.861C39.459-21.831 38.8-21.81 38.13-21.81C37.75-21.81 37.37-21.821 36.99-21.831C35.124-21.874 33.263-22.076 31.431-22.433C31.101-22.493 30.781-22.563 30.461-22.633C30.292-22.673 30.132-22.713 29.962-22.763C29.512-22.873 29.061-22.993 28.621-23.113C28.402-23.173 28.192-23.243 27.982-23.313C27.623-23.423 27.262-23.533 26.902-23.654C26.593-23.754 26.292-23.865 25.992-23.985C25.823-24.045 25.662-24.105 25.502-24.174C25.292-24.255 25.082-24.335 24.882-24.425C24.673-24.515 24.462-24.605 24.263-24.695C24.213-24.715 24.163-24.737 24.123-24.757C23.953-24.827 23.783-24.907 23.624-24.987C22.894-25.327 22.193-25.689 21.523-26.079L21.073-26.349C20.814-26.499 20.563-26.659 20.314-26.819C20.164-26.909 20.014-27.01 19.864-27.11C19.619-27.261 19.383-27.426 19.155-27.602L18.735-27.901C18.543-28.046 18.353-28.198 18.166-28.35C18.032-28.456 17.887-28.554 17.755-28.663C17.724-28.68 17.697-28.705 17.676-28.733C17.396-28.963 17.115-29.203 16.855-29.443C16.475-29.773 16.116-30.125 15.766-30.485C15.676-30.575 15.586-30.676 15.496-30.776C15.296-30.986 15.105-31.197 14.915-31.407C14.806-31.527 14.705-31.647 14.605-31.767C14.446-31.957 14.286-32.158 14.126-32.358C14.021-32.478 13.923-32.605 13.835-32.739C13.685-32.939 13.536-33.15 13.396-33.351C13.3-33.471 13.214-33.599 13.137-33.731C12.927-34.032 12.736-34.342 12.556-34.652C12.539-34.673 12.527-34.697 12.517-34.722C12.317-35.053 12.136-35.394 11.966-35.734C10.789-38.053 10.167-40.615 10.147-43.216C10.177-47.2 11.709-51.026 14.436-53.925C24.183-64.743 45.967-68.929 64.282-68.989C64.452-68.999 64.632-69 64.802-69ZM94.413-45.652C90.949-45.652 93.516-41.538 93.516-37.571C93.516-33.603 93.637-30.387 97.101-30.387C100.566-30.387 104.271-33.603 104.271-37.571C104.271-41.538 97.877-45.652 94.413-45.652Z"/>
  </g>
 </g>
</svg>
